HIERARCHY
ROOT hip
{
	OFFSET 0.000000 0.000000 0.000000
	CHANNELS 6 Xposition Yposition Zposition Xrotation Zrotation Yrotation 
	JOINT abdomen
	{
		OFFSET 0.000000 3.422050 0.000000
		CHANNELS 3 Xrotation Zrotation Yrotation 
		JOINT chest
		{
			OFFSET 0.000000 8.486693 -0.684411
			CHANNELS 3 Xrotation Zrotation Yrotation 
			JOINT neck
			{
				OFFSET 0.000000 10.266162 -0.273764
				CHANNELS 3 Xrotation Zrotation Yrotation 
				JOINT head
				{
					OFFSET 0.000000 3.148285 0.000000
					CHANNELS 3 Xrotation Zrotation Yrotation 
					End Site
					{
						OFFSET 0.000000 3.148289 0.000000
					}
				}
			}
			JOINT lCollar
			{
				OFFSET 3.422053 6.707223 -0.821293
				CHANNELS 3 Yrotation Zrotation Xrotation 
				JOINT lShldr
				{
					OFFSET 3.285171 0.000000 0.000000
					CHANNELS 3 Zrotation Yrotation Xrotation 
					JOINT lForeArm
					{
						OFFSET 10.129278 0.000000 0.000000
						CHANNELS 3 Yrotation Zrotation Xrotation 
						JOINT lHand
						{
							OFFSET 8.486692 0.000000 0.000000
							CHANNELS 3 Zrotation Yrotation Xrotation 
							End Site
							{
								OFFSET 4.106464 0.000000 0.000000
							}
						}
					}
				}
			}
			JOINT rCollar
			{
				OFFSET -3.558935 6.707223 -0.821293
				CHANNELS 3 Yrotation Zrotation Xrotation 
				JOINT rShldr
				{
					OFFSET -3.148289 0.000000 0.000000
					CHANNELS 3 Zrotation Yrotation Xrotation 
					JOINT rForeArm
					{
						OFFSET -10.266159 0.000000 0.000000
						CHANNELS 3 Yrotation Zrotation Xrotation 
						JOINT rHand
						{
							OFFSET -8.349810 0.000000 0.000000
							CHANNELS 3 Zrotation Yrotation Xrotation 
							End Site
							{
								OFFSET -4.106464 0.000000 0.000000
							}
						}
					}
				}
			}
		}
	}
	JOINT lThigh
	{
		OFFSET 5.338403 -1.642589 1.368821
		CHANNELS 3 Xrotation Zrotation Yrotation 
		JOINT lShin
		{
			OFFSET -2.053232 -20.121670 0.000000
			CHANNELS 3 Xrotation Zrotation Yrotation 
			JOINT lFoot
			{
				OFFSET 0.000000 -19.300380 -1.231939
				CHANNELS 3 Xrotation Yrotation Zrotation 
				End Site
				{
					OFFSET 0.000000 -2.463878 4.653993
				}
			}
		}
	}
	JOINT rThigh
	{
		OFFSET -5.338403 -1.642589 1.368821
		CHANNELS 3 Xrotation Zrotation Yrotation 
		JOINT rShin
		{
			OFFSET 2.053232 -20.121670 0.000000
			CHANNELS 3 Xrotation Zrotation Yrotation 
			JOINT rFoot
			{
				OFFSET 0.000000 -19.300380 -1.231939
				CHANNELS 3 Xrotation Yrotation Zrotation 
				End Site
				{
					OFFSET 0.000000 -2.463878 4.653993
				}
			}
		}
	}
}
MOTION
Frames: 13
Frame Time: 0.049897
-0.000001 5.996777 39.994766 -94.004440 0.000000 0.000000 6.780266 0.000000 0.000000 -4.716470 -0.001065 -0.450063 12.499088 0.000000 0.000000 -1.924067 0.000000 0.000000 2.109844 -0.430256 -4.362312 -83.407196 -2.094509 0.382517 -45.199520 2.618698 0.456152 -16.792969 6.504737 -1.880527 -3.286938 1.919677 0.046844 82.923393 0.799234 0.579840 66.612106 3.144083 -0.065935 16.319925 -2.308447 0.267903 -36.767113 37.723919 4.503940 95.768112 24.494762 -7.727125 16.013245 -10.709690 2.725011 -36.882393 -37.917042 -4.687857 95.768822 -24.494480 7.721902 16.040140 10.817444 -3.010530 
-0.000001 5.996777 39.994766 -94.004440 0.000000 0.000000 6.404725 0.000000 0.000000 -4.491398 -0.001099 -0.450025 13.000299 0.000000 0.000000 -1.347185 0.000000 0.000000 1.985594 -0.824082 -4.136174 -83.108757 -2.193694 0.343355 -44.922615 2.725383 0.436163 -16.764208 6.284016 -1.766103 -3.115482 2.238701 0.042656 82.650200 0.966779 0.532698 66.206421 2.998313 -0.053786 16.319925 -2.308447 0.267903 -36.664909 37.418556 4.290201 95.768112 24.494762 -7.727125 15.902205 -10.521175 2.326095 -36.774750 -37.601414 -4.464476 95.768822 -24.494480 7.721902 15.926822 10.623358 -2.596359 
-0.000001 5.996777 39.994766 -94.004440 0.000000 0.000000 6.029202 0.000000 0.000000 -4.266330 -0.001133 -0.449988 13.501468 0.000000 0.000000 -0.770363 0.000000 0.000000 1.862893 -1.218367 -3.910878 -82.810234 -2.292670 0.303676 -44.645638 2.831965 0.415657 -16.735903 6.063244 -1.651841 -2.943969 2.557698 0.037511 82.376862 1.134092 0.484757 65.800827 2.852469 -0.042674 16.319925 -2.308447 0.267903 -36.561703 37.113541 4.076653 95.768112 24.494762 -7.727125 15.792587 -10.331919 1.927817 -36.666016 -37.286133 -4.241304 95.768822 -24.494480 7.721902 15.815009 10.428482 -2.182865 
-0.000001 5.996777 39.994766 -94.004440 0.000000 0.000000 5.653700 0.000000 0.000000 -4.041267 -0.001167 -0.449951 14.002580 0.000000 0.000000 -0.193627 0.000000 0.000000 1.741736 -1.613092 -3.686411 -82.511658 -2.391435 0.263480 -44.368618 2.938444 0.394634 -16.708050 5.842419 -1.537737 -2.772393 2.876659 0.031410 82.103401 1.301167 0.436017 65.395370 2.706563 -0.032598 16.319925 -2.308447 0.267903 -36.457485 36.808834 3.863294 95.768112 24.494762 -7.727125 15.684382 -10.141936 1.530180 -36.556206 -36.971222 -4.018333 95.768822 -24.494480 7.721902 15.704712 10.232839 -1.770055 
-0.000001 5.996777 39.994766 -94.004440 0.000000 0.000000 5.278232 0.000000 0.000000 -3.816211 -0.001202 -0.449914 14.503616 0.000000 0.000000 0.382990 0.000000 0.000000 1.622116 -2.008232 -3.462762 -82.212990 -2.489982 0.222769 -44.091541 3.044813 0.373095 -16.680651 5.621551 -1.423790 -2.600746 3.195575 0.024350 81.829773 1.467996 0.386480 64.990005 2.560605 -0.023558 16.319927 -2.308447 0.267903 -36.352295 36.504494 3.650106 95.768112 24.494762 -7.727125 15.577592 -9.951239 1.133188 -36.445332 -36.656689 -3.795547 95.768822 -24.494480 7.721902 15.595926 10.036443 -1.357931 
-0.000001 5.996777 39.994766 -94.004440 0.000000 0.000000 4.902804 0.000000 0.000000 -3.591165 -0.001236 -0.449877 15.004555 0.000000 0.000000 0.959461 0.000000 0.000000 1.504029 -2.403769 -3.239917 -81.914253 -2.588309 0.181544 -43.814411 3.151070 0.351040 -16.653704 5.400637 -1.309997 -2.429021 3.514437 0.016333 81.556000 1.634573 0.336147 64.584770 2.414608 -0.015553 16.319925 -2.308447 0.267903 -36.246109 36.200497 3.437091 95.768112 24.494762 -7.727125 15.472224 -9.759849 0.736846 -36.333408 -36.342541 -3.572943 95.768822 -24.494480 7.721902 15.488662 9.839313 -0.946499 
-0.000001 5.996777 39.994766 -94.004440 0.000000 0.000000 4.527424 0.000000 0.000000 -3.366126 -0.001271 -0.449841 15.505380 0.000000 0.000000 1.535759 0.000000 0.000000 1.387470 -2.799681 -3.017862 -81.615440 -2.686411 0.139807 -43.537247 3.257212 0.328470 -16.627209 5.179683 -1.196354 -2.257210 3.833236 0.007355 81.282082 1.800892 0.285018 64.179672 2.268583 -0.008584 16.319925 -2.308446 0.267903 -36.138973 35.896873 3.224233 95.768112 24.494762 -7.727125 15.368278 -9.567778 0.341154 -36.220436 -36.028805 -3.350508 95.768822 -24.494480 7.721902 15.382918 9.641468 -0.535761 
-0.000001 5.996777 39.994766 -94.004440 0.000000 0.000000 4.152102 0.000000 0.000000 -3.141103 -0.001306 -0.449804 16.006073 0.000000 0.000000 2.111851 0.000000 0.000000 1.272433 -3.195946 -2.796588 -81.316589 -2.784283 0.097559 -43.260033 3.363233 0.305386 -16.601164 4.958693 -1.082861 -2.085306 4.151960 -0.002583 81.008018 1.966946 0.233095 63.774708 2.122540 -0.002650 16.319925 -2.308447 0.267903 -36.030872 35.593639 3.011527 95.768112 24.494762 -7.727125 15.265755 -9.375041 -0.053881 -36.106441 -35.715488 -3.128240 95.768822 -24.494480 7.721902 15.278700 9.442924 -0.125723 
-0.000001 5.996777 39.994766 -94.004440 0.000000 0.000000 3.776841 0.000000 0.000000 -2.916090 -0.001341 -0.449768 16.506609 0.000000 0.000000 2.687711 0.000000 0.000000 1.158913 -3.592544 -2.576080 -81.017654 -2.881923 0.054802 -42.982777 3.469130 0.281788 -16.575571 4.737668 -0.969515 -1.913303 4.470604 -0.013482 80.733818 2.132729 0.180380 63.369900 1.976493 0.002249 16.319925 -2.308446 0.267903 -35.921818 35.290787 2.798965 95.768112 24.494762 -7.727125 15.164662 -9.181662 -0.448258 -35.991421 -35.402607 -2.906124 95.768822 -24.494480 7.721902 15.176007 9.243702 0.283613 
-0.000001 5.996777 39.994766 -94.004440 0.000000 0.000000 3.401656 0.000000 0.000000 -2.691096 -0.001376 -0.449731 17.006977 0.000000 0.000000 3.263307 0.000000 0.000000 1.046906 -3.989453 -2.356325 -80.718666 -2.979324 0.011539 -42.705463 3.574898 0.257678 -16.550423 4.516612 -0.856312 -1.741191 4.789155 -0.025344 80.459488 2.298234 0.126873 62.965233 1.830452 0.006115 16.319925 -2.308447 0.267903 -35.811832 34.988342 2.586543 95.768112 24.494762 -7.727125 15.065001 -8.987648 -0.841972 -35.875389 -35.090160 -2.684149 95.768822 -24.494480 7.721902 15.074844 9.043815 0.692243 
-0.000001 5.996777 39.994766 -94.004440 0.000000 0.000000 3.026550 0.000000 0.000000 -2.466118 -0.001411 -0.449695 17.507153 0.000000 0.000000 3.838614 0.000000 0.000000 0.936407 -4.386653 -2.137312 -80.419632 -3.076485 -0.032230 -42.428120 3.680535 0.233055 -16.525728 4.295528 -0.743251 -1.568966 5.107605 -0.038169 80.184990 2.463455 0.072576 62.560715 1.684428 0.008948 16.319925 -2.308446 0.267903 -35.700905 34.686298 2.374246 95.768112 24.494762 -7.727125 14.966773 -8.793021 -1.235021 -35.758369 -34.778191 -2.462317 95.768822 -24.494480 7.721902 14.975217 8.843287 1.100163 
-0.000001 5.996777 39.994766 -94.004440 0.000000 0.000000 2.651532 0.000000 0.000000 -2.241158 -0.001447 -0.449659 18.007116 0.000000 0.000000 4.413601 0.000000 0.000000 0.827412 -4.784124 -1.919026 -80.120522 -3.173399 -0.076504 -42.150738 3.786037 0.207921 -16.501478 4.074418 -0.630329 -1.396618 5.425948 -0.051960 79.910362 2.628386 0.017489 62.156384 1.538434 0.010748 16.319927 -2.308447 0.267903 -35.589062 34.384701 2.162074 95.768112 24.494762 -7.727125 14.869976 -8.597795 -1.627403 -35.640358 -34.466682 -2.240614 95.768822 -24.494480 7.721902 14.877115 8.642128 1.507372 
-0.000001 5.996777 39.994766 -94.004440 0.000000 0.000000 2.276612 0.000000 0.000000 -2.016221 -0.001482 -0.449623 18.506853 0.000000 0.000000 4.988237 0.000000 0.000000 0.719914 -5.181843 -1.701457 -79.821388 -3.270064 -0.121280 -41.873322 3.891398 0.182276 -16.477669 3.853286 -0.517544 -1.224141 5.744170 -0.066717 79.635582 2.793019 -0.038385 61.752197 1.392479 0.011518 16.319925 -2.308447 0.267903 -35.476311 34.083538 1.950017 95.768112 24.494762 -7.727125 14.774616 -8.401986 -2.019115 -35.521374 -34.155666 -2.019031 95.768822 -24.494480 7.721902 14.780555 8.440363 1.913863 
